<?xml version="1.0" encoding="utf-8"?>
<!-- Generator: Adobe Illustrator 17.1.0, SVG Export Plug-In . SVG Version: 6.00 Build 0)  -->
<!DOCTYPE svg PUBLIC "-//W3C//DTD SVG 1.1//EN" "http://www.w3.org/Graphics/SVG/1.1/DTD/svg11.dtd">
<svg version="1.1" id="Layer_1" xmlns="http://www.w3.org/2000/svg" xmlns:xlink="http://www.w3.org/1999/xlink" x="0px" y="0px"
	 viewBox="0 0 32 30" enable-background="new 0 0 32 30" xml:space="preserve">
<g>
	<path fill="#FFFFFF" d="M28.246,12.812c-0.261-1.519-1.488-2.576-2.989-2.697c-2.682-0.215-4.996,1.22-7.598,1.679
		c-0.209,0.036-0.488-0.406-0.741-0.66c1.207-0.909,1.043-2.692-0.354-3.462c-0.097-0.11-0.062-1.137-0.006-1.183
		c0.114-0.095,1.005,0.076,1.131-0.034c0.127-0.11,0.101-1.179,0.02-1.282c-0.081-0.102-1.085,0.007-1.142-0.061
		c-0.056-0.069,0.028-1.031-0.066-1.107c-0.068-0.054-0.347-0.06-0.502-0.059c-0.155-0.001-0.434,0.005-0.501,0.059
		c-0.095,0.076-0.01,1.038-0.067,1.107c-0.056,0.068-1.06-0.041-1.142,0.061c-0.08,0.103-0.106,1.172,0.021,1.282
		c0.126,0.11,1.017-0.061,1.131,0.034c0.055,0.046,0.09,1.073-0.006,1.183c-1.397,0.77-1.561,2.553-0.354,3.462
		c-0.253,0.254-0.533,0.696-0.741,0.66c-2.602-0.459-4.916-1.894-7.598-1.679c-1.501,0.121-2.728,1.178-2.989,2.697
		c-0.47,2.733,1.494,4.834,2.448,7.155c0.301,0.732,0.566,1.717,0.518,2.563c0,0,7.788,0,9.175,0v0.001c0,0,0.037,0,0.106-0.001
		c0.069,0.001,0.105,0.001,0.105,0.001V22.53c1.387,0,9.175,0,9.175,0c-0.047-0.846,0.217-1.831,0.519-2.563
		C26.752,17.646,28.716,15.545,28.246,12.812 M14.89,18.864c-0.242,1.372-1.004,2.244-1.638,2.248
		c-0.416,0.003-0.75-0.155-1.053-0.421c-0.418-0.365-0.758-0.967-0.649-1.322c0.092-0.12,1.217,0.052,1.298-0.06
		c0.08-0.112-0.137-0.988-0.265-1.102c-0.126-0.113-1.142,0.038-1.279-0.073c-0.135-0.111-0.262-1.198-0.401-1.264
		c0,0-1.075-0.161-1.153-0.008c-0.078,0.154,0.363,1.061,0.288,1.216c-0.076,0.154-1.499-0.136-1.524,0.024
		c-0.025,0.16,0.082,0.959,0.219,1.077c0.136,0.118,1.464,0.126,1.464,0.126c0.276,0.211,0.349,0.639,0.35,1.077
		c0.003,0.556-0.43,0.843-1.12,0.65c-1.286-0.36-2.88-3.149-3.826-5.081c-0.696-1.419-1.115-3.742,0.711-4.438
		c1.112-0.424,2.28-0.184,3.477,0.171c1.254,0.373,2.908,0.876,3.883,1.482c0.239,0.149-0.285,0.03,0.58,1.947
		C14.656,16.005,15.059,17.905,14.89,18.864 M22.573,21.032c-0.69,0.193-1.122-0.094-1.12-0.65c0.001-0.438,0.073-0.866,0.35-1.077
		c0,0,1.328-0.008,1.464-0.126c0.137-0.118,0.244-0.917,0.219-1.077s-1.448,0.13-1.524-0.024c-0.075-0.155,0.366-1.062,0.288-1.216
		c-0.079-0.153-1.153,0.008-1.153,0.008c-0.139,0.066-0.265,1.153-0.401,1.264c-0.137,0.111-1.153-0.04-1.279,0.073
		c-0.128,0.114-0.344,0.99-0.265,1.102c0.08,0.112,1.205-0.06,1.298,0.06c0.109,0.355-0.231,0.957-0.649,1.322
		c-0.303,0.266-0.637,0.424-1.053,0.421c-0.635-0.004-1.397-0.876-1.638-2.248c-0.168-0.959,0.236-2.859,0.637-3.751
		c0.866-1.917,0.342-1.798,0.581-1.947c0.975-0.606,2.629-1.109,3.884-1.482c1.196-0.355,2.364-0.595,3.477-0.171
		c1.825,0.696,1.405,3.019,0.71,4.438C25.452,17.883,23.858,20.672,22.573,21.032"/>
	<polygon fill="#FFFFFF" points="16.106,23.8 15.895,23.8 6.511,23.8 6.511,25.412 15.895,25.412 16.106,25.412 25.49,25.412 
		25.49,23.8 	"/>
</g>
</svg>
